HIERARCHY
ROOT pelvis
{
  OFFSET 0 100 0
  CHANNELS 6 Xposition Yposition Zposition Zrotation Xrotation Yrotation
  JOINT pelvis_right_femur
  {
    OFFSET -10.78128 -3.44521 -0.5502486
    CHANNELS 3 Zrotation Xrotation Yrotation
    JOINT right_femur_tibia
    {
      OFFSET -0.8047443 -44.0398 -0.1307829
      CHANNELS 3 Zrotation Xrotation Yrotation
      JOINT right_tibia_foot
      {
        OFFSET 3.006224 -47.83518 -5
        CHANNELS 3 Zrotation Xrotation Yrotation
        End Site
        {
          OFFSET 0 -5 15
        }
      }
    }
  }
  JOINT pelvis_left_femur
  {
    OFFSET 10.78128 -3.44521 -0.5502486
    CHANNELS 3 Zrotation Xrotation Yrotation
    JOINT left_femur_tibia
    {
      OFFSET 0.8047443 -44.0398 -0.1307829
      CHANNELS 3 Zrotation Xrotation Yrotation
      JOINT left_tibia_foot
      {
        OFFSET -4.370144 -48.10324 -4.275266
        CHANNELS 3 Zrotation Xrotation Yrotation
        End Site
        {
          OFFSET 0 -5 15
        }
      }
    }
  }
  JOINT pelvis_spine1
  {
    OFFSET 0 6.468898 -3.129235
    CHANNELS 3 Zrotation Xrotation Yrotation
    JOINT spine1
    {
      OFFSET 0 23.15396 4.99043
      CHANNELS 3 Zrotation Xrotation Yrotation
      JOINT spine2
      {
        OFFSET 0 20.79997 -5.064912
        CHANNELS 3 Zrotation Xrotation Yrotation
        JOINT neck
        {
          OFFSET 0 14.38658 9.616178
          CHANNELS 3 Zrotation Xrotation Yrotation
          End Site
          {
            OFFSET 0 20 0
          }
        }
      }
      JOINT right_manubrium
      {
        OFFSET -5.722621 16.35077 3.967754
        CHANNELS 3 Zrotation Xrotation Yrotation
        JOINT right_clavicle
        {
          OFFSET -13.16364 1.694482 -4.693211
          CHANNELS 3 Zrotation Xrotation Yrotation
          JOINT right_humerus
          {
            OFFSET -28.5034 -0.3100689 -2.792744
            CHANNELS 3 Zrotation Xrotation Yrotation
            JOINT right_radius
            {
              OFFSET -25.15693 0.02248979 -1.271978
              CHANNELS 3 Zrotation Xrotation Yrotation
              End Site
              {
                OFFSET -15 0 0
              }
            }
          }
        }
      }
      JOINT left_manubrium
      {
        OFFSET 5.722621 16.35077 3.967754
        CHANNELS 3 Zrotation Xrotation Yrotation
        JOINT left_clavicle
        {
          OFFSET 13.16364 1.694482 -4.693211
          CHANNELS 3 Zrotation Xrotation Yrotation
          JOINT left_humerus
          {
            OFFSET 29.39168 -1.063119 -2.237045
            CHANNELS 3 Zrotation Xrotation Yrotation
            JOINT left_radius
            {
              OFFSET 24.59957 -0.9528479 0.9047498
              CHANNELS 3 Zrotation Xrotation Yrotation
              End Site
              {
                OFFSET 15 -0 -0
              }
            }
          }
        }
      }
    }
  }
}
MOTION
Frames: 7
Frame Time: 0.0416666666667
0 103.5113 0 2.189761 -1.173855 0.2750842 1.226567 -10.11057 8.679699 -0 34.07959 -0 -5.261847 -17.88496 -2.270004 -8.049847 10.09968 -23.47802 -0 5.162482 -0 7.664082 -16.18485 26.5522 -4.350251 -5.046197 4.971917 2.030973 9.207304 -7.735512 0.834724 22.80189 7.174685 3.255553 -23.11155 8.803177 6.367028 -19.74355 11.57609 86.32397 35.95378 -19.81734 -0 0 16.20962 -7.574762 8.24903 4.612931 5.521039 -19.50456 -1.692233 -94.73673 29.73903 22.85276 0 0 -16.09979 3.530127 17.89868 9.525699
0.3344699 103.4675 1.403192 2.06251 -1.004367 0.4556439 1.443372 -11.11213 8.46717 -0 32.83993 -0 -5.291591 -17.33825 -2.093532 -7.949371 10.24708 -23.30019 -0 5.275643 -0 7.493635 -16.51635 26.32517 -4.31246 -4.849144 4.958585 2.138028 9.162055 -7.733908 0.8551814 22.6821 7.192297 3.288627 -23.25705 8.820651 6.336699 -19.64969 11.57535 86.34188 35.94662 -19.92286 -0 0 16.01438 -7.608406 8.294043 4.62338 5.638839 -19.59957 -1.687844 -94.53771 29.68127 22.53907 0 0 -16.59798 3.645451 17.80262 9.425495
0.67653 103.3436 2.944659 1.901098 -0.745203 0.5798973 1.703068 -12.47215 8.133321 -0 30.64346 -0 -5.320799 -16.5153 -1.739898 -7.832957 10.44454 -23.01757 -0 5.486579 -0 7.228535 -16.98544 25.9684 -4.273935 -4.586308 4.961893 2.294559 9.092443 -7.718916 0.8844938 22.511 7.215049 3.338004 -23.45372 8.83864 6.283444 -19.50037 11.57065 86.38036 35.93614 -20.08896 -0 0 15.71176 -7.656668 8.36259 4.634486 5.824445 -19.744 -1.680697 -94.23595 29.59295 22.04833 0 0 -17.34148 3.81488 17.66664 9.268078
1.02899 103.1148 4.677693 1.735923 -0.3934981 0.6554693 1.950819 -14.03354 7.683023 -0 27.40835 -0 -5.341747 -15.44375 -1.189426 -7.726832 10.68453 -22.61716 -0 5.851928 -0 6.848451 -17.54948 25.45413 -4.241258 -4.292785 4.982964 2.481098 8.999681 -7.691457 0.9179348 22.30918 7.242669 3.399739 -23.68065 8.854295 6.199421 -19.29599 11.55142 86.45612 35.92265 -20.31502 -0 0 15.30326 -7.719444 8.456815 4.647928 6.067207 -19.93513 -1.671472 -93.83768 29.47523 21.39516 0 0 -18.27803 4.02275 17.49428 9.067923
1.39381 102.7664 6.658261 1.59779 0.05103919 0.7125911 2.133285 -15.60991 7.125551 -0 23.1408 -0 -5.351477 -14.16846 -0.444176 -7.655336 10.96089 -22.08493 -0 6.448021 -0 6.32387 -18.1485 24.74639 -4.215581 -4.00848 5.015947 2.672026 8.88584 -7.657333 0.9488425 22.10233 7.275684 3.468051 -23.91462 8.865244 6.077132 -19.03882 11.50501 86.58925 35.90649 -20.59818 -0 0 14.79357 -7.797542 8.579719 4.66765 6.346991 -20.16669 -1.66229 -93.35483 29.32994 20.60936 0 0 -19.33074 4.247609 17.28802 8.848673
1.771172 102.3005 8.942111 1.495571 0.5754627 0.7925338 2.231926 -17.02189 6.48349 -0 18.0696 -0 -5.365602 -12.76881 0.4522722 -7.620507 11.25651 -21.41802 -0 7.362503 -0 5.622854 -18.69284 23.82125 -4.181959 -3.764403 5.048868 2.847504 8.75429 -7.627371 0.9696889 21.90908 7.313819 3.535919 -24.13623 8.867204 5.918874 -18.73288 11.42754 86.79215 35.88786 -20.93164 -0 0 14.19467 -7.89292 8.733575 4.698838 6.630004 -20.42129 -1.65973 -92.81565 29.15781 19.74625 0 0 -20.40197 4.467283 17.04992 8.639473
2.156918 101.7501 11.58508 1.407425 1.147504 0.9341254 2.277334 -18.04735 5.806637 -0 12.76291 -0 -5.423495 -11.39019 1.39849 -7.590518 11.53233 -20.62259 -0 8.746857 -0 4.695714 -19.02042 22.6592 -4.096074 -3.58733 5.059005 2.992664 8.609685 -7.622031 0.9691835 21.74097 7.355663 3.593013 -24.32648 8.850565 5.740959 -18.38136 11.32682 87.07207 35.86763 -21.30535 -0 0 13.52558 -8.010558 8.921883 4.749885 6.853592 -20.66085 -1.680107 -92.27577 28.95904 18.90664 0 0 -21.34204 4.653662 16.78017 8.484412
